<mxfile host="app.diagrams.net" modified="2022-01-03T05:44:29.812Z" agent="5.0 (Windows NT 10.0; Win64; x64) AppleWebKit/537.36 (KHTML, like Gecko) Chrome/96.0.4664.110 Safari/537.36" etag="4iIPKVlq4SgOgmVJaTdn" version="16.1.2" type="github">
  <diagram id="amrZpSWuf85oC7Gn9W7X" name="Page-1">
    <mxGraphModel dx="868" dy="450" grid="1" gridSize="10" guides="1" tooltips="1" connect="1" arrows="1" fold="1" page="1" pageScale="1" pageWidth="827" pageHeight="1169" math="0" shadow="0">
      <root>
        <mxCell id="0" />
        <mxCell id="1" parent="0" />
        <mxCell id="kFAgW7ydbyZMMfaz00AP-5" value="" style="ellipse;whiteSpace=wrap;html=1;aspect=fixed;dashed=1;strokeColor=#FF0000;" vertex="1" parent="1">
          <mxGeometry x="240" y="120" width="280" height="280" as="geometry" />
        </mxCell>
        <mxCell id="kFAgW7ydbyZMMfaz00AP-1" value="" style="curved=1;endArrow=classic;html=1;rounded=0;entryX=0.5;entryY=0;entryDx=0;entryDy=0;strokeColor=#6666FF;edgeStyle=orthogonalEdgeStyle;exitX=0.5;exitY=1;exitDx=0;exitDy=0;" edge="1" parent="1" source="kFAgW7ydbyZMMfaz00AP-3" target="kFAgW7ydbyZMMfaz00AP-4">
          <mxGeometry width="50" height="50" relative="1" as="geometry">
            <mxPoint x="200" y="90" as="sourcePoint" />
            <mxPoint x="160" y="320" as="targetPoint" />
          </mxGeometry>
        </mxCell>
        <mxCell id="kFAgW7ydbyZMMfaz00AP-2" value="" style="ellipse;whiteSpace=wrap;html=1;aspect=fixed;" vertex="1" parent="1">
          <mxGeometry x="350" y="200" width="80" height="80" as="geometry" />
        </mxCell>
        <mxCell id="kFAgW7ydbyZMMfaz00AP-3" value="&lt;font style=&quot;font-size: 24px&quot;&gt;起始點&lt;/font&gt;" style="rounded=1;whiteSpace=wrap;html=1;" vertex="1" parent="1">
          <mxGeometry x="230" y="30" width="120" height="60" as="geometry" />
        </mxCell>
        <mxCell id="kFAgW7ydbyZMMfaz00AP-4" value="&lt;font style=&quot;font-size: 24px&quot;&gt;終點&lt;/font&gt;" style="rounded=1;whiteSpace=wrap;html=1;" vertex="1" parent="1">
          <mxGeometry x="110" y="350" width="120" height="60" as="geometry" />
        </mxCell>
        <mxCell id="kFAgW7ydbyZMMfaz00AP-9" value="" style="endArrow=none;html=1;rounded=0;strokeColor=#1A1A1A;curved=1;entryX=0;entryY=0;entryDx=0;entryDy=0;" edge="1" parent="1" target="kFAgW7ydbyZMMfaz00AP-2">
          <mxGeometry width="50" height="50" relative="1" as="geometry">
            <mxPoint x="280" y="160" as="sourcePoint" />
            <mxPoint x="440" y="210" as="targetPoint" />
          </mxGeometry>
        </mxCell>
        <mxCell id="kFAgW7ydbyZMMfaz00AP-10" value="" style="endArrow=none;html=1;rounded=0;strokeColor=#1A1A1A;curved=1;" edge="1" parent="1">
          <mxGeometry width="50" height="50" relative="1" as="geometry">
            <mxPoint x="240" y="220" as="sourcePoint" />
            <mxPoint x="360" y="210" as="targetPoint" />
          </mxGeometry>
        </mxCell>
        <mxCell id="kFAgW7ydbyZMMfaz00AP-11" value="" style="endArrow=none;html=1;rounded=0;strokeColor=#1A1A1A;curved=1;" edge="1" parent="1">
          <mxGeometry width="50" height="50" relative="1" as="geometry">
            <mxPoint x="240" y="220" as="sourcePoint" />
            <mxPoint x="280" y="160" as="targetPoint" />
          </mxGeometry>
        </mxCell>
      </root>
    </mxGraphModel>
  </diagram>
</mxfile>
